<?xml version="1.0" encoding="iso-8859-1"?>
<!-- Uploaded to: SVG Repo, www.svgrepo.com, Generator: SVG Repo Mixer Tools -->
<svg fill="#000000" height="800px" width="800px" version="1.1" id="Layer_1" xmlns="http://www.w3.org/2000/svg" xmlns:xlink="http://www.w3.org/1999/xlink" 
	 viewBox="0 0 512 512" xml:space="preserve">
<g>
	<g>
		<path d="M368.84,245.11c0-24.115-4.827-39.204-11.502-50.836H126.16c-6.675,11.633-11.502,26.721-11.502,50.836
			c0,63.711,46.881,116.468,108.027,125.667v103.096h-57.191V512h152.509v-38.127h-57.191V370.777
			C321.959,361.578,368.84,308.82,368.84,245.11z"/>
	</g>
</g>
<g>
	<g>
		<path d="M375.008,22.889c-29.78-29.78-78.06-29.779-107.84,0l41.982,41.982l-40.439,40.44h-33.316V43.68L162.593,0l-19.616,32.694
			l54.289,32.575v40.042h-31.773c0,24.114-4.827,39.204-11.502,50.836h175.512c-6.244-10.88-10.867-24.788-11.439-46.272
			l18.044-18.044l38.899,38.899C404.786,100.949,404.786,52.668,375.008,22.889z"/>
	</g>
</g>
</svg>