<?xml version="1.0" encoding="iso-8859-1"?>
<!-- Uploaded to: SVG Repo, www.svgrepo.com, Generator: SVG Repo Mixer Tools -->
<!DOCTYPE svg PUBLIC "-//W3C//DTD SVG 1.1//EN" "http://www.w3.org/Graphics/SVG/1.1/DTD/svg11.dtd">
<svg height="800px" width="800px" version="1.1" id="Capa_1" xmlns="http://www.w3.org/2000/svg" xmlns:xlink="http://www.w3.org/1999/xlink" 
	 viewBox="0 0 491.117 491.117" xml:space="preserve">
<path id="oversized-wine-glass-5" style="fill:#000100;" d="M307.996,306.472c69.357-16.724,118.942-63.276,118.942-141.484
	c0-35.556-38.736-108.616-60.321-155.235C363.869,3.805,357.907,0,351.357,0H139.755c-6.554,0-12.506,3.805-15.255,9.752
	c-21.584,46.619-60.32,119.68-60.32,155.235c0,78.208,49.585,124.761,118.943,141.484c6.257,9.752,23.75,25.879,46.067,31.827
	v91.141c-51.542,4.222-91.064,27.146-91.064,38.659c0,12.722,48.097,23.018,107.434,23.018c59.336,0,107.43-10.296,107.43-23.018
	c0-11.514-39.519-34.437-91.061-38.659v-91.141C284.245,332.352,301.738,316.225,307.996,306.472z"/>
</svg>