<?xml version="1.0" encoding="iso-8859-1"?>
<!-- Uploaded to: SVG Repo, www.svgrepo.com, Generator: SVG Repo Mixer Tools -->
<svg fill="#000000" height="800px" width="800px" version="1.1" id="Layer_1" xmlns="http://www.w3.org/2000/svg" xmlns:xlink="http://www.w3.org/1999/xlink" 
	 viewBox="0 0 511.999 511.999" xml:space="preserve">
<g>
	<g>
		<path d="M468.299,129.281h-60.837l7.776-85.815h53.056c12.002,0,21.733-9.731,21.733-21.733S480.297,0,468.295,0h-72.909
			c-11.243,0-20.629,8.574-21.643,19.771l-9.922,109.51H285.83C275.424,66.345,220.629,18.192,154.791,18.192
			c-73.24,0-132.827,59.586-132.827,132.828c0,68.269,52.271,127.048,122.993,132.399c2.782,30.616,7.004,77.215,16.388,180.848
			c2.488,27.211,24.954,47.732,52.256,47.732h195.886c27.32,0,49.782-20.528,52.246-47.749
			c22.24-245.367,13.496-148.889,28.21-311.275C491.097,140.255,481.069,129.281,468.299,129.281z M154.793,129.281
			c-12.82,0-22.797,11.039-21.646,23.698c3.161,34.916,1.543,17.04,7.815,86.366c-43.239-6.629-75.532-44.33-75.532-88.325
			c0-49.275,40.087-89.362,89.36-89.362c41.78,0,76.955,28.818,86.687,67.623H154.793z M438.289,241.395H184.796
			c-0.846-9.342-5.362-59.221-6.216-68.642c4.323,0,254.216-0.006,265.927-0.006L438.289,241.395z"/>
	</g>
</g>
</svg>