<?xml version="1.0" encoding="iso-8859-1"?>
<!-- Uploaded to: SVG Repo, www.svgrepo.com, Generator: SVG Repo Mixer Tools -->
<svg fill="#000000" version="1.1" id="Layer_1" xmlns="http://www.w3.org/2000/svg" xmlns:xlink="http://www.w3.org/1999/xlink" 
	 viewBox="0 0 512 512" xml:space="preserve">
<g>
	<g>
		<rect x="425.708" y="45.42" transform="matrix(0.7071 -0.7071 0.7071 0.7071 87.5205 336.1751)" width="47.703" height="34.041"/>
	</g>
</g>
<g>
	<g>
		<rect x="384.07" width="34.042" height="47.704"/>
	</g>
</g>
<g>
	<g>
		<rect x="464.295" y="93.887" width="47.704" height="34.042"/>
	</g>
</g>
<g>
	<g>
		<path d="M356.942,66.715l-70.222,70.222l10.195,10.195c-36.183,33.013-60.873,40.768-86.857,48.917
			c-27.39,8.591-55.59,17.455-94.911,51.582l46.023,46.023l15.147-5.325c18.225-6.408,34.43-4.909,43.347,4.008
			c8.917,8.918,10.414,25.122,4.008,43.347l-5.325,15.147l46.024,46.023c34.127-39.323,42.991-67.521,51.581-94.911
			c8.148-25.984,15.902-50.674,48.915-86.857l10.195,10.195l70.222-70.223L356.942,66.715z"/>
	</g>
</g>
<g>
	<g>
		<path d="M178.58,390.598l-15.148,5.326c-18.221,6.407-34.427,4.91-43.346-4.008c-8.917-8.918-10.416-25.122-4.008-43.347
			l5.326-15.147l-46.705-46.705L0.002,361.411L150.59,512l74.696-74.696L178.58,390.598z"/>
	</g>
</g>
</svg>